HIERARCHY
ROOT root
{
	OFFSET 0.000000 0.000000 0.000000
	CHANNELS 6 Xposition Yposition Zposition Zrotation Yrotation Xrotation
	JOINT lhip
	{
		OFFSET 0.058581 -0.082280 -0.017664
		CHANNELS 3 Zrotation Yrotation Xrotation
		JOINT lknee
		{
			OFFSET 0.043451 -0.386469 0.008037
			CHANNELS 3 Zrotation Yrotation Xrotation
			JOINT lankle
			{
				OFFSET -0.014790 -0.426874 -0.037428
				CHANNELS 3 Zrotation Yrotation Xrotation
				JOINT ltoe
				{
					OFFSET 0.041054 -0.060286 0.122042
					CHANNELS 3 Zrotation Yrotation Xrotation
					End Site
					{
						OFFSET 0.000000 0.000000 0.000000
					}
				}
			}
		}
	}
	JOINT rhip
	{
		OFFSET -0.060310 -0.090513 -0.013543
		CHANNELS 3 Zrotation Yrotation Xrotation
		JOINT rknee
		{
			OFFSET -0.043257 -0.383688 -0.004843
			CHANNELS 3 Zrotation Yrotation Xrotation
			JOINT rankle
			{
				OFFSET 0.019056 -0.420046 -0.034562
				CHANNELS 3 Zrotation Yrotation Xrotation
				JOINT rtoe
				{
					OFFSET -0.034840 -0.062106 0.130323
					CHANNELS 3 Zrotation Yrotation Xrotation
					End Site
					{
						OFFSET 0.000000 0.000000 0.000000
					}
				}
			}
		}
	}
	JOINT lowerback
	{
		OFFSET 0.004439 0.124404 -0.038385
		CHANNELS 3 Zrotation Yrotation Xrotation
		JOINT upperback
		{
			OFFSET 0.004488 0.137956 0.026820
			CHANNELS 3 Zrotation Yrotation Xrotation
			JOINT chest
			{
				OFFSET -0.002265 0.056032 0.002855
				CHANNELS 3 Zrotation Yrotation Xrotation
				JOINT lowerneck
				{
					OFFSET -0.013390 0.211636 -0.033468
					CHANNELS 3 Zrotation Yrotation Xrotation
					JOINT upperneck
					{
						OFFSET 0.010113 0.088937 0.050410
						CHANNELS 3 Zrotation Yrotation Xrotation
						End Site
						{
							OFFSET 0.000000 0.000000 0.000000
						}
					}
				}
				JOINT lclavicle
				{
					OFFSET 0.071702 0.114000 -0.018898
					CHANNELS 3 Zrotation Yrotation Xrotation
					JOINT lshoulder
					{
						OFFSET 0.122921 0.045205 -0.019046
						CHANNELS 3 Zrotation Yrotation Xrotation
						JOINT lelbow
						{
							OFFSET 0.255332 -0.015649 -0.022946
							CHANNELS 3 Zrotation Yrotation Xrotation
							JOINT lwrist
							{
								OFFSET 0.265709 0.012698 -0.007375
								CHANNELS 3 Zrotation Yrotation Xrotation
								End Site
								{
									OFFSET 0.000000 0.000000 0.000000
								}
							}
						}
					}
				}
				JOINT rclavicle
				{
					OFFSET -0.082954 0.112472 -0.023707
					CHANNELS 3 Zrotation Yrotation Xrotation
					JOINT rshoulder
					{
						OFFSET -0.113228 0.046853 -0.008472
						CHANNELS 3 Zrotation Yrotation Xrotation
						JOINT relbow
						{
							OFFSET -0.260127 -0.014369 -0.031269
							CHANNELS 3 Zrotation Yrotation Xrotation
							JOINT rwrist
							{
								OFFSET -0.269108 0.006794 -0.006027
								CHANNELS 3 Zrotation Yrotation Xrotation
								End Site
								{
									OFFSET 0.000000 0.000000 0.000000
								}
							}
						}
					}
				}
			}
		}
	}
}
MOTION
Frames: 12
Frame Time: 0.033333
1.158619 0.164703 0.993955 -87.455278 2.453040 86.066377 -0.264824 0.312867 7.380509 -2.796555 -18.096764 1.174349 4.310490 7.123315 -14.854489 0.000000 -0.000000 0.000000 4.001883 -2.166723 3.071904 4.140558 1.981154 7.944171 3.359880 -5.235652 -10.696797 0.000000 -0.000000 0.000000 -1.509157 0.411235 8.094395 1.984301 -3.392190 2.118965 1.237333 -3.157518 5.612533 4.572194 -2.071197 -0.206806 2.767060 -6.597498 3.744178 -25.963010 7.875783 1.906549 -58.300099 -3.361900 5.524476 9.289276 -18.165049 2.371292 -2.727557 0.509246 -7.297391 23.751737 -5.447014 -1.215066 60.485000 -2.200800 10.624997 -13.950671 26.201856 -4.307261 6.307416 -0.700425 -9.541370 
1.158498 0.164424 0.993208 -87.605343 2.644397 86.252254 -0.034493 0.173736 7.164084 -2.954389 -17.936291 1.262086 4.469748 7.175306 -14.874223 0.000000 -0.000000 0.000000 4.152760 -1.907332 2.935358 4.200345 1.942299 7.858625 3.372977 -5.341689 -10.636234 0.000000 -0.000000 0.000000 -1.349893 0.424291 7.659670 2.023918 -3.209721 2.252682 1.265846 -3.128102 5.661492 4.508450 -2.096762 0.444035 2.571728 -6.310061 3.942768 -25.870644 7.982482 2.246612 -58.585301 -3.389155 5.520390 9.481417 -18.633155 2.414065 -2.987547 0.405711 -7.699053 23.696949 -5.587882 -0.815516 60.460774 -2.083869 10.547765 -14.270033 26.143318 -4.253985 6.417759 -0.550546 -9.453025 
1.158696 0.164134 0.992710 -87.864158 2.731542 86.394376 0.041118 -0.023819 6.944313 -3.083212 -17.540008 1.390280 4.483417 7.243494 -14.830303 0.000000 -0.000000 0.000000 4.204300 -1.827169 2.637789 4.192550 1.938630 8.053055 3.261253 -5.406585 -10.582204 0.000000 -0.000000 0.000000 -1.255829 0.465305 7.563157 2.055454 -3.074890 2.178816 1.249502 -3.069520 5.596067 4.533061 -2.153678 0.758827 2.539379 -6.194561 4.084388 -25.735420 8.145450 2.362961 -58.929246 -3.489732 5.643836 9.538712 -19.074865 2.589318 -2.989496 0.064659 -7.940758 23.602474 -5.790137 -0.595209 60.557578 -2.020349 10.413726 -14.456651 26.240952 -4.522671 6.438364 -0.399111 -9.770820 
1.158607 0.163164 0.992781 -87.777854 2.754119 86.400262 -0.014538 0.012588 6.897492 -3.064145 -17.504022 1.472933 4.474532 7.129287 -14.884685 0.000000 -0.000000 0.000000 4.118844 -1.808335 2.735552 4.215280 1.879017 7.945556 3.402691 -5.437470 -10.537762 0.000000 -0.000000 0.000000 -1.145832 0.341539 7.571912 2.019430 -3.171819 2.158568 1.135521 -3.227477 5.743037 4.632462 -1.981293 0.557008 2.589129 -6.102209 4.290197 -25.744729 8.296482 2.283542 -59.182629 -3.782792 5.833493 9.551950 -19.885638 2.706504 -2.847583 -0.116937 -8.066642 23.651981 -6.005053 -1.207361 60.539361 -2.125508 10.615648 -14.336451 26.347925 -4.278992 6.086603 -0.329468 -9.536954 
1.158526 0.162822 0.992740 -87.800575 2.792746 86.369511 0.021527 0.014777 6.951794 -3.085017 -17.520422 1.437985 4.479614 7.104901 -14.857944 0.000000 -0.000000 0.000000 4.137173 -1.741415 2.738759 4.198828 1.827416 7.988529 3.428565 -5.447364 -10.547538 0.000000 -0.000000 0.000000 -1.127495 0.206300 7.603905 2.017323 -3.238389 2.130052 1.093014 -3.310769 5.860287 4.575895 -2.117992 0.541734 2.602060 -6.137422 4.396667 -25.825345 8.415927 2.173233 -59.296802 -4.020207 5.889439 9.552193 -20.558110 2.646847 -2.591210 0.103283 -8.148886 23.606634 -6.413864 -1.590403 60.602947 -1.946496 10.723732 -14.029135 26.495032 -3.804953 6.098318 -0.375644 -9.255751 
1.158582 0.162404 0.992711 -87.923608 2.788892 86.468164 -0.061319 -0.075684 6.887768 -3.016149 -17.404766 1.390294 4.505259 7.180148 -14.796196 0.000000 -0.000000 0.000000 4.250111 -1.578541 2.384087 3.912883 1.636742 8.503139 3.429828 -5.353820 -10.634130 0.000000 -0.000000 0.000000 -1.297905 0.171285 7.553902 2.070599 -3.278077 2.133587 1.186317 -3.195683 5.861412 4.710356 -2.064408 0.405722 2.698765 -6.260058 4.441704 -25.780000 8.191619 2.097696 -59.645128 -4.351359 6.232309 9.668721 -21.442379 2.635850 -2.568309 -0.139523 -8.387013 23.615704 -5.927595 -1.273541 60.726963 -2.131068 10.796186 -14.725609 26.873834 -4.497653 6.193141 -0.123596 -9.775973 
1.158424 0.162020 0.992678 -87.962779 2.862043 86.544499 -0.003810 -0.096641 6.809327 -3.035218 -17.301821 1.418159 4.519296 7.143453 -14.826301 0.000000 -0.000000 0.000000 4.300153 -1.384197 2.579326 3.921075 1.745273 8.016400 3.507819 -5.496419 -10.297902 0.000000 -0.000000 0.000000 -1.153485 0.031292 7.643725 2.038286 -3.276576 1.829116 1.064058 -3.410992 6.061469 4.754491 -2.285611 0.138515 2.832838 -6.327230 4.438379 -25.892224 8.262687 1.808587 -59.682458 -4.693213 6.437762 9.517321 -22.548447 2.978852 -2.494542 -0.343260 -8.466707 23.528837 -6.520923 -1.820473 60.776752 -1.958840 11.114575 -14.045417 27.305665 -3.462861 6.072228 -0.090157 -9.192066 
1.158284 0.161566 0.992707 -88.016662 2.893671 86.527960 -0.005447 -0.036136 6.797862 -3.032438 -17.266018 1.474442 4.548271 7.099611 -14.771919 0.000000 -0.000000 0.000000 4.267116 -1.475973 2.641115 3.943979 1.716961 7.967389 3.514651 -5.393799 -10.350167 0.000000 -0.000000 0.000000 -1.251808 0.035882 7.691518 2.098750 -3.335810 1.908919 1.106595 -3.421986 5.934503 4.739970 -2.628301 0.397105 2.657914 -6.469700 4.686984 -26.024397 8.021944 1.841821 -59.816123 -5.181153 6.666349 9.564659 -23.931333 2.882556 -2.189108 -0.292077 -8.444283 23.473585 -6.298843 -1.694936 60.896274 -2.004275 11.131904 -14.123040 27.741704 -3.535712 5.985119 -0.122893 -9.014019 
1.157939 0.160940 0.992801 -88.210584 2.931949 86.524182 -0.002497 -0.036108 6.836193 -3.044158 -17.092706 1.466371 4.559690 7.045783 -14.821969 0.000000 -0.000000 0.000000 4.239425 -1.676145 2.666284 3.933848 1.794620 7.955480 3.501924 -5.031228 -10.291053 0.000000 -0.000000 0.000000 -1.340042 0.131854 7.480515 2.147968 -3.440109 2.290051 1.132145 -3.356339 5.873840 4.865723 -2.616570 0.126554 2.938286 -6.662267 4.786070 -25.922861 7.800285 1.655306 -60.221783 -5.686360 6.985625 9.752218 -25.385632 2.986593 -2.053749 -0.517052 -8.595155 23.394616 -6.305887 -1.842650 61.060051 -1.928887 11.104723 -14.182501 28.198430 -3.565649 6.047342 0.052415 -9.200785 
1.157923 0.159683 0.993101 -88.188731 3.114730 86.172476 0.106130 -0.093564 7.101172 -3.063829 -16.909687 1.697589 4.580055 6.922364 -14.919895 0.000000 -0.000000 0.000000 4.287211 -1.500698 3.198501 3.997716 1.390173 7.760878 3.519486 -4.884863 -10.194248 0.000000 -0.000000 0.000000 -1.226630 -0.030821 7.313586 2.119373 -3.628368 3.149840 1.111907 -3.196129 5.900797 4.395406 -1.976584 0.490891 2.904258 -6.091553 4.813458 -25.633083 7.179302 1.881948 -60.672285 -6.347811 7.380341 10.199143 -27.931865 3.114440 -2.086897 -0.833776 -9.065856 23.221179 -5.825525 -1.536187 61.374954 -1.616230 10.923506 -14.445195 28.950097 -3.645556 6.162692 0.084780 -9.395671 
1.157872 0.159230 0.993145 -88.193642 3.193177 86.236979 0.194123 -0.075620 7.016972 -3.127508 -16.922116 1.708515 4.671368 6.897454 -14.935476 0.000000 -0.000000 0.000000 4.305605 -1.687915 3.179116 4.038565 1.426596 7.639571 3.517719 -4.800263 -10.104439 0.000000 -0.000000 0.000000 -1.291304 -0.033960 7.238270 2.188626 -3.748610 3.272215 1.134374 -3.176064 5.856316 4.430139 -2.380137 0.741416 2.997570 -6.259553 4.609650 -25.503003 6.978953 1.765075 -60.954813 -6.726805 7.711522 10.301857 -29.545522 3.462728 -2.069974 -0.415887 -9.326776 23.009963 -5.814071 -1.549874 61.707800 -1.827690 10.946164 -14.607067 29.718892 -3.834278 6.656563 -0.398114 -10.204400 
1.157754 0.158496 0.993350 -88.242820 3.260466 86.160628 0.253584 -0.107306 7.168711 -3.107722 -16.796743 1.537093 4.600687 6.767330 -14.792248 0.000000 -0.000000 0.000000 4.390263 -1.820086 3.359850 3.887367 1.397858 7.432411 3.617278 -4.598194 -10.012548 0.000000 -0.000000 0.000000 -1.345564 -0.025020 7.433752 2.270392 -3.772850 3.218130 1.200891 -3.191173 5.709830 4.481427 -2.692095 0.841059 3.069031 -6.480767 4.712809 -25.552731 6.826535 1.694071 -60.940573 -7.091714 7.976549 10.395927 -30.907626 3.532877 -1.819960 -0.855775 -9.373138 22.959935 -5.711406 -1.446662 61.634158 -1.919396 10.935166 -14.527237 30.163114 -3.902432 6.425831 -0.442365 -10.160336 
